<svg width="38" height="34" viewBox="0 0 38 34" fill="none" xmlns="http://www.w3.org/2000/svg">
<path fill-rule="evenodd" clip-rule="evenodd" d="M18.5939 12.0862C18.8524 11.9713 19.1476 11.9713 19.4061 12.0862L37.4061 20.0862C37.9108 20.3105 38.1381 20.9015 37.9138 21.4061C37.6895 21.9108 37.0985 22.1381 36.5939 21.9138L19 14.0943L1.40614 21.9138C0.90146 22.1381 0.310498 21.9108 0.0861939 21.4061C-0.13811 20.9015 0.0891828 20.3105 0.593867 20.0862L18.5939 12.0862Z" fill="#A1A9B2"/>
<path fill-rule="evenodd" clip-rule="evenodd" d="M18.5939 24.0862C18.8524 23.9713 19.1476 23.9713 19.4061 24.0862L37.4061 32.0862C37.9108 32.3105 38.1381 32.9015 37.9138 33.4061C37.6895 33.9108 37.0985 34.1381 36.5939 33.9138L19 26.0943L1.40614 33.9138C0.90146 34.1381 0.310498 33.9108 0.0861939 33.4061C-0.13811 32.9015 0.0891828 32.3105 0.593867 32.0862L18.5939 24.0862Z" fill="#F6F7F9"/>
<path fill-rule="evenodd" clip-rule="evenodd" d="M18.5939 0.0861884C18.8524 -0.0287295 19.1476 -0.0287295 19.4061 0.0861884L37.4061 8.08619C37.9108 8.31049 38.1381 8.90145 37.9138 9.40614C37.6895 9.91082 37.0985 10.1381 36.5939 9.91381L19 2.09432L1.40614 9.91381C0.90146 10.1381 0.310498 9.91082 0.0861939 9.40614C-0.13811 8.90145 0.0891828 8.31049 0.593867 8.08619L18.5939 0.0861884Z" fill="#E0E2E6"/>
</svg>
