<svg width="current" height="current" viewBox="0 0 38 34" fill="none" xmlns="http://www.w3.org/2000/svg">
<g id="arrow">
<path id="vector" fill-rule="evenodd" clip-rule="evenodd" d="M18.5936 12.0862C18.8522 11.9713 19.1473 11.9713 19.4059 12.0862L37.4059 20.0862C37.9106 20.3105 38.1379 20.9015 37.9136 21.4061C37.6893 21.9108 37.0983 22.1381 36.5936 21.9138L18.9998 14.0943L1.4059 21.9138C0.901216 22.1381 0.310254 21.9108 0.0859497 21.4061C-0.138354 20.9015 0.0889387 20.3105 0.593623 20.0862L18.5936 12.0862Z" fill="#E0E2E6"/>
<path id="vector_2" fill-rule="evenodd" clip-rule="evenodd" d="M18.5936 24.0862C18.8522 23.9713 19.1473 23.9713 19.4059 24.0862L37.4059 32.0862C37.9106 32.3105 38.1379 32.9015 37.9136 33.4061C37.6893 33.9108 37.0983 34.1381 36.5936 33.9138L18.9998 26.0943L1.4059 33.9138C0.901216 34.1381 0.310254 33.9108 0.0859497 33.4061C-0.138354 32.9015 0.0889387 32.3105 0.593623 32.0862L18.5936 24.0862Z" fill="#A1A9B2"/>
<path id="vector_3" fill-rule="evenodd" clip-rule="evenodd" d="M18.5936 0.0861884C18.8522 -0.0287295 19.1473 -0.0287295 19.4059 0.0861884L37.4059 8.08619C37.9106 8.31049 38.1379 8.90145 37.9136 9.40614C37.6893 9.91082 37.0983 10.1381 36.5936 9.91381L18.9998 2.09432L1.4059 9.91381C0.901216 10.1381 0.310254 9.91082 0.0859497 9.40614C-0.138354 8.90145 0.0889387 8.31049 0.593623 8.08619L18.5936 0.0861884Z" fill="#F6F7F9"/>
</g>
</svg>
