<svg
  xmlns="http://www.w3.org/2000/svg"
  width="100%"
  height="100%"
  viewBox="0 0 24 24"
  fill="none"
>
  <path
    fillRule="evenodd"
    clipRule="evenodd"
    d="M4.01709 6.12324C4.01709 5.68141 4.37526 5.32324 4.81709 5.32324H19.183C19.6248 5.32324 19.983 5.68141 19.983 6.12324C19.983 6.56507 19.6248 6.92324 19.183 6.92324H4.81709C4.37526 6.92324 4.01709 6.56507 4.01709 6.12324ZM4.01709 10.0412C4.01709 9.59938 4.37526 9.24121 4.81709 9.24121H19.183C19.6248 9.24121 19.983 9.59938 19.983 10.0412C19.983 10.483 19.6248 10.8412 19.183 10.8412H4.81709C4.37526 10.8412 4.01709 10.483 4.01709 10.0412ZM4.01709 13.9592C4.01709 13.5174 4.37526 13.1592 4.81709 13.1592H19.183C19.6248 13.1592 19.983 13.5174 19.983 13.9592C19.983 14.401 19.6248 14.7592 19.183 14.7592H4.81709C4.37526 14.7592 4.01709 14.401 4.01709 13.9592ZM4.01709 17.8771C4.01709 17.4353 4.37526 17.0771 4.81709 17.0771H19.183C19.6248 17.0771 19.983 17.4353 19.983 17.8771C19.983 18.319 19.6248 18.6771 19.183 18.6771H4.81709C4.37526 18.6771 4.01709 18.319 4.01709 17.8771Z"
    fill="#242B37"
  />
</svg>
