<svg xmlns="http://www.w3.org/2000/svg" width="24" height="24" viewBox="0 0 24 24" fill="none">
<path fill-rule="evenodd" clip-rule="evenodd" d="M5.43427 5.43451C5.74669 5.12209 6.25322 5.12209 6.56564 5.43451L12 10.8688L17.4343 5.43451C17.7467 5.12209 18.2532 5.12209 18.5656 5.43451C18.8781 5.74693 18.8781 6.25346 18.5656 6.56588L13.1313 12.0002L18.5656 17.4345C18.8781 17.7469 18.8781 18.2535 18.5656 18.5659C18.2532 18.8783 17.7467 18.8783 17.4343 18.5659L12 13.1316L6.56564 18.5659C6.25322 18.8783 5.74669 18.8783 5.43427 18.5659C5.12185 18.2535 5.12185 17.7469 5.43427 17.4345L10.8686 12.0002L5.43427 6.56588C5.12185 6.25346 5.12185 5.74693 5.43427 5.43451Z" fill="#242B37"/>
</svg>