<svg xmlns="http://www.w3.org/2000/svg" width="15" height="16" viewBox="0 0 15 16" fill="none">
<path fill-rule="evenodd" clip-rule="evenodd" d="M0.709635 10.5381C1.07783 10.5381 1.3763 10.8366 1.3763 11.2048V13.0074C1.3763 13.3211 1.49405 13.6146 1.69218 13.825C1.88903 14.034 2.14716 14.1433 2.40723 14.1433H12.5928C12.8528 14.1433 13.111 14.034 13.3078 13.825C13.5059 13.6146 13.6237 13.3211 13.6237 13.0074V11.2048C13.6237 10.8366 13.9222 10.5381 14.2904 10.5381C14.6586 10.5381 14.957 10.8366 14.957 11.2048V13.0074C14.957 13.6498 14.7171 14.2733 14.2785 14.7391C13.8386 15.2062 13.2332 15.4767 12.5928 15.4767H2.40723C1.76683 15.4767 1.16139 15.2062 0.721517 14.7391C0.282924 14.2733 0.0429688 13.6498 0.0429688 13.0074V11.2048C0.0429688 10.8366 0.341446 10.5381 0.709635 10.5381Z" fill="#338AFF"/>
<path fill-rule="evenodd" clip-rule="evenodd" d="M7.97141 10.8749C7.71106 11.1353 7.28895 11.1353 7.0286 10.8749L3.42335 7.26967C3.163 7.00932 3.163 6.58721 3.42335 6.32686C3.6837 6.06651 4.10581 6.06651 4.36616 6.32686L6.83333 8.79403V1.1901C6.83333 0.821914 7.13181 0.523437 7.5 0.523438C7.86819 0.523438 8.16667 0.821915 8.16667 1.1901V8.79403L10.6338 6.32686C10.8942 6.06651 11.3163 6.06651 11.5766 6.32686C11.837 6.58721 11.837 7.00932 11.5766 7.26967L7.97141 10.8749Z" fill="#338AFF"/>
</svg>