<svg
    width="24"
    height="24"
    viewBox="0 0 24 24"
    fill="none"
    xmlns="http://www.w3.org/2000/svg"
>
    <path
        fillRule="evenodd"
        clipRule="evenodd"
        d="M1.98926 21.1154C1.98926 20.6736 2.34743 20.3154 2.78926 20.3154H21.2111C21.653 20.3154 22.0111 20.6736 22.0111 21.1154C22.0111 21.5572 21.653 21.9154 21.2111 21.9154H2.78926C2.34743 21.9154 1.98926 21.5572 1.98926 21.1154Z"
        fill="#333E4C"
    />
    <path
        fillRule="evenodd"
        clipRule="evenodd"
        d="M16.6202 2.97535C17.8087 1.78686 19.7356 1.78686 20.9241 2.97535C22.1126 4.16384 22.1126 6.09076 20.9241 7.27926L9.9322 18.2712C9.81871 18.3847 9.67436 18.4623 9.51711 18.4943L6.04952 19.2009C5.2452 19.3648 4.53467 18.6543 4.69857 17.8499L5.40518 14.3824C5.43722 14.2251 5.51481 14.0808 5.6283 13.9673L16.6202 2.97535ZM19.7927 4.10672C19.2291 3.54307 18.3152 3.54307 17.7516 4.10672L6.92599 14.9323L6.4036 17.4959L8.96715 16.9735L19.7927 6.14788C20.3564 5.58423 20.3564 4.67037 19.7927 4.10672Z"
        fill="#333E4C"
    />
    <path
        fillRule="evenodd"
        clipRule="evenodd"
        d="M17.3262 9.53139L14.2957 6.50086L15.4271 5.36949L18.4576 8.40002L17.3262 9.53139Z"
        fill="#333E4C"
    />
</svg>