<svg width="24" height="24" viewBox="0 0 24 24" fill="none" xmlns="http://www.w3.org/2000/svg">
<g id="marble_small_filled">
<path id="vector" d="M20.9807 12.0002C20.9807 16.9602 16.9599 20.981 12 20.981C7.04009 20.981 3.01929 16.9602 3.01929 12.0002C3.01929 7.04033 7.04009 3.01953 12 3.01953C16.9599 3.01953 20.9807 7.04033 20.9807 12.0002Z" fill="url(#paint0_linear_571_6828)"/>
<g id="vector_2">
<path fill-rule="evenodd" clip-rule="evenodd" d="M6.79639 10.0526C6.79639 9.66598 7.10979 9.35258 7.49639 9.35258H12.4964C12.883 9.35258 13.1964 9.66598 13.1964 10.0526C13.1964 10.4392 12.883 10.7526 12.4964 10.7526H7.49639C7.10979 10.7526 6.79639 10.4392 6.79639 10.0526Z" fill="white"/>
<path fill-rule="evenodd" clip-rule="evenodd" d="M9.99623 13.2525C9.60964 13.2525 9.29623 12.9391 9.29623 12.5525L9.29623 7.55254C9.29623 7.16594 9.60964 6.85254 9.99623 6.85254C10.3828 6.85254 10.6962 7.16594 10.6962 7.55254L10.6962 12.5525C10.6962 12.9391 10.3828 13.2525 9.99623 13.2525Z" fill="white"/>
</g>
</g>
<defs>
<linearGradient id="paint0_linear_571_6828" x1="12" y1="3.01953" x2="12" y2="20.981" gradientUnits="userSpaceOnUse">
<stop stop-color="#8AC2FF"/>
<stop offset="1" stop-color="#338AFF"/>
</linearGradient>
</defs>
</svg>
