<svg xmlns="http://www.w3.org/2000/svg" width="100%" height="100%" viewBox="0 0 24 24" fill="none">
  <path fill-rule="evenodd" clip-rule="evenodd" d="M12 4.8002C8.0235 4.8002 4.79995 8.02375 4.79995 12.0002C4.79995 15.9766 8.0235 19.2002 12 19.2002C15.9764 19.2002 19.2 15.9766 19.2 12.0002C19.2 8.02375 15.9764 4.8002 12 4.8002ZM3.19995 12.0002C3.19995 7.14009 7.13985 3.2002 12 3.2002C16.8601 3.2002 20.7999 7.14009 20.7999 12.0002C20.7999 16.8603 16.8601 20.8002 12 20.8002C7.13985 20.8002 3.19995 16.8603 3.19995 12.0002Z" fill="#242B37"/>
  <path fill-rule="evenodd" clip-rule="evenodd" d="M6.69629 10.2293C6.69629 9.78743 7.05447 9.42926 7.49629 9.42926H12.8496C13.2915 9.42926 13.6496 9.78743 13.6496 10.2293C13.6496 10.6711 13.2915 11.0293 12.8496 11.0293H7.49629C7.05447 11.0293 6.69629 10.6711 6.69629 10.2293Z" fill="#242B37"/>
  <path fill-rule="evenodd" clip-rule="evenodd" d="M10.1729 13.7059C9.7311 13.7059 9.37293 13.3477 9.37293 12.9059V7.55254C9.37293 7.11071 9.7311 6.75254 10.1729 6.75254C10.6148 6.75254 10.9729 7.11071 10.9729 7.55254L10.9729 12.9059C10.9729 13.3477 10.6148 13.7059 10.1729 13.7059Z" fill="#242B37"/>
</svg>