<svg width="100%" height="100%" viewBox="0 0 30 30" fill="none" xmlns="http://www.w3.org/2000/svg">
<path fill-rule="evenodd" clip-rule="evenodd" d="M8.0624 14.7488C8.07857 14.7488 8.09406 14.7424 8.10549 14.731C8.11692 14.7196 8.12334 14.7041 8.12334 14.6879C8.12334 14.6717 8.11692 14.6562 8.10549 14.6448C8.09406 14.6334 8.07857 14.627 8.0624 14.627C8.04624 14.627 8.03074 14.6334 8.01931 14.6448C8.00789 14.6562 8.00146 14.6717 8.00146 14.6879C8.00146 14.7041 8.00789 14.7196 8.01931 14.731C8.03074 14.7424 8.04624 14.7488 8.0624 14.7488ZM6.72663 13.3521C7.0809 12.9979 7.56139 12.7988 8.0624 12.7988C8.56341 12.7988 9.0439 12.9979 9.39817 13.3521C9.75244 13.7064 9.95146 14.1869 9.95146 14.6879C9.95146 15.1889 9.75244 15.6694 9.39817 16.0237C9.0439 16.3779 8.56341 16.577 8.0624 16.577C7.56139 16.577 7.0809 16.3779 6.72663 16.0237C6.37237 15.6694 6.17334 15.1889 6.17334 14.6879C6.17334 14.1869 6.37237 13.7064 6.72663 13.3521ZM15.3749 14.7488C15.3911 14.7488 15.4066 14.7424 15.418 14.731C15.4294 14.7196 15.4358 14.7041 15.4358 14.6879C15.4358 14.6717 15.4294 14.6562 15.418 14.6448C15.4066 14.6334 15.3911 14.627 15.3749 14.627C15.3587 14.627 15.3432 14.6334 15.3318 14.6448C15.3204 14.6562 15.314 14.6717 15.314 14.6879C15.314 14.7041 15.3204 14.7196 15.3318 14.731C15.3432 14.7424 15.3587 14.7488 15.3749 14.7488ZM14.0391 13.3521C14.3934 12.9979 14.8739 12.7988 15.3749 12.7988C15.8759 12.7988 16.3564 12.9979 16.7107 13.3521C17.0649 13.7064 17.264 14.1869 17.264 14.6879C17.264 15.1889 17.0649 15.6694 16.7107 16.0237C16.3564 16.3779 15.8759 16.577 15.3749 16.577C14.8739 16.577 14.3934 16.3779 14.0391 16.0237C13.6849 15.6694 13.4858 15.1889 13.4858 14.6879C13.4858 14.1869 13.6849 13.7064 14.0391 13.3521ZM22.6874 14.7488C22.7036 14.7488 22.7191 14.7424 22.7305 14.731C22.7419 14.7196 22.7483 14.7041 22.7483 14.6879C22.7483 14.6717 22.7419 14.6562 22.7305 14.6448C22.7191 14.6334 22.7036 14.627 22.6874 14.627C22.6712 14.627 22.6557 14.6334 22.6443 14.6448C22.6329 14.6562 22.6265 14.6717 22.6265 14.6879C22.6265 14.7041 22.6329 14.7196 22.6443 14.731C22.6557 14.7424 22.6712 14.7488 22.6874 14.7488ZM21.3516 13.3521C21.7059 12.9979 22.1864 12.7988 22.6874 12.7988C23.1884 12.7988 23.6689 12.9979 24.0232 13.3521C24.3774 13.7064 24.5765 14.1869 24.5765 14.6879C24.5765 15.1889 24.3774 15.6694 24.0232 16.0237C23.6689 16.3779 23.1884 16.577 22.6874 16.577C22.1864 16.577 21.7059 16.3779 21.3516 16.0237C20.9974 15.6694 20.7983 15.1889 20.7983 14.6879C20.7983 14.1869 20.9974 13.7064 21.3516 13.3521Z" fill="white"/>
</svg>
