<svg width="30" height="30" viewBox="0 0 30 30" fill="none" xmlns="http://www.w3.org/2000/svg">
<g id="post">
<path id="Rectangle 34624946" d="M4.99805 6.27783C4.99805 4.89712 6.11734 3.77783 7.49805 3.77783H22.5029C23.8836 3.77783 25.0029 4.89712 25.0029 6.27783V23.7223C25.0029 25.103 23.8836 26.2223 22.5029 26.2223H7.49805C6.11734 26.2223 4.99805 25.103 4.99805 23.7223V6.27783Z" fill="url(#paint0_linear_528_27030)"/>
<path id="Vector 26619 (Stroke)" fill-rule="evenodd" clip-rule="evenodd" d="M9.39258 9.64551C9.39258 9.16226 9.78433 8.77051 10.2676 8.77051H19.7327C20.216 8.77051 20.6077 9.16226 20.6077 9.64551C20.6077 10.1288 20.216 10.5205 19.7327 10.5205H10.2676C9.78433 10.5205 9.39258 10.1288 9.39258 9.64551Z" fill="white"/>
<path id="Vector 26620 (Stroke)" fill-rule="evenodd" clip-rule="evenodd" d="M9.39258 13.8999C9.39258 13.4167 9.78433 13.0249 10.2676 13.0249H15.3115C15.7948 13.0249 16.1865 13.4167 16.1865 13.8999C16.1865 14.3832 15.7948 14.7749 15.3115 14.7749H10.2676C9.78433 14.7749 9.39258 14.3832 9.39258 13.8999Z" fill="white"/>
</g>
<defs>
<linearGradient id="paint0_linear_528_27030" x1="15.0005" y1="3.77783" x2="15.0005" y2="26.2223" gradientUnits="userSpaceOnUse">
<stop stop-color="#8AC2FF"/>
<stop offset="1" stop-color="#338AFF"/>
</linearGradient>
</defs>
</svg>
