<svg width="25" height="24" viewBox="0 0 25 24" fill="none" xmlns="http://www.w3.org/2000/svg">
<path d="M4.49805 5.02246C4.49805 3.91789 5.39348 3.02246 6.49805 3.02246H18.502C19.6065 3.02246 20.502 3.91789 20.502 5.02246V18.978C20.502 20.0826 19.6065 20.978 18.502 20.978H6.49805C5.39348 20.978 4.49805 20.0826 4.49805 18.978V5.02246Z" fill="url(#paint0_linear_577_6976)"/>
<path fill-rule="evenodd" clip-rule="evenodd" d="M8.01392 7.7166C8.01392 7.33 8.32732 7.0166 8.71392 7.0166H16.286C16.6726 7.0166 16.986 7.33 16.986 7.7166C16.986 8.1032 16.6726 8.4166 16.286 8.4166H8.71392C8.32732 8.4166 8.01392 8.1032 8.01392 7.7166Z" fill="white"/>
<path fill-rule="evenodd" clip-rule="evenodd" d="M8.01392 11.1199C8.01392 10.7333 8.32732 10.4199 8.71392 10.4199H12.7491C13.1357 10.4199 13.4491 10.7333 13.4491 11.1199C13.4491 11.5065 13.1357 11.8199 12.7491 11.8199H8.71392C8.32732 11.8199 8.01392 11.5065 8.01392 11.1199Z" fill="white"/>
<defs>
<linearGradient id="paint0_linear_577_6976" x1="12.5" y1="3.02246" x2="12.5" y2="20.978" gradientUnits="userSpaceOnUse">
<stop stop-color="#8AC2FF"/>
<stop offset="1" stop-color="#338AFF"/>
</linearGradient>
</defs>
</svg>
