<svg width="24" height="24" viewBox="0 0 24 24" fill="none" xmlns="http://www.w3.org/2000/svg">
<path d="M20.0938 10.5156C20.0938 14.9857 16.4701 18.6094 12 18.6094C7.52995 18.6094 3.90625 14.9857 3.90625 10.5156C3.90625 6.04557 7.52995 2.42188 12 2.42188C16.4701 2.42188 20.0938 6.04557 20.0938 10.5156Z" fill="url(#paint0_linear_695_14918)"/>
<path d="M6.26644 17.6415C6.34623 17.4223 6.5546 17.2764 6.78787 17.2764H17.2421C17.4767 17.2764 17.6859 17.4239 17.7647 17.6448L18.9038 20.8369C19.0328 21.1983 18.7649 21.5783 18.3812 21.5783H5.62587C5.2407 21.5783 4.97269 21.1955 5.10444 20.8336L6.26644 17.6415Z" fill="url(#paint1_linear_695_14918)"/>
<path fill-rule="evenodd" clip-rule="evenodd" d="M6.7876 8.51816C6.7876 8.15918 7.07861 7.86816 7.4376 7.86816H12.4376C12.7966 7.86816 13.0876 8.15918 13.0876 8.51816C13.0876 8.87715 12.7966 9.16816 12.4376 9.16816H7.4376C7.07861 9.16816 6.7876 8.87715 6.7876 8.51816Z" fill="white"/>
<path fill-rule="evenodd" clip-rule="evenodd" d="M9.9376 11.6682C9.57861 11.6682 9.2876 11.3771 9.2876 11.0182L9.2876 6.01816C9.2876 5.65918 9.57861 5.36816 9.9376 5.36816C10.2966 5.36816 10.5876 5.65918 10.5876 6.01816L10.5876 11.0182C10.5876 11.3771 10.2966 11.6682 9.9376 11.6682Z" fill="white"/>
<defs>
<linearGradient id="paint0_linear_695_14918" x1="12" y1="2.42187" x2="12" y2="21.5783" gradientUnits="userSpaceOnUse">
<stop stop-color="#8AC2FF"/>
<stop offset="1" stop-color="#338AFF"/>
</linearGradient>
<linearGradient id="paint1_linear_695_14918" x1="12" y1="2.42187" x2="12" y2="21.5783" gradientUnits="userSpaceOnUse">
<stop stop-color="#8AC2FF"/>
<stop offset="1" stop-color="#338AFF"/>
</linearGradient>
</defs>
</svg>
