<svg xmlns="http://www.w3.org/2000/svg" width="current" height="current" viewBox="0 0 24 24" fill="none">
<path fill-rule="evenodd" clip-rule="evenodd" d="M2.64904 5.15993C3.06591 4.73843 3.6332 4.5 4.2266 4.5H19.9192C20.5126 4.5 21.0798 4.73843 21.4967 5.15993C21.9133 5.58113 22.1458 6.15055 22.1458 6.74245V16.1176V16.1191V18.282C22.1458 18.8739 21.9133 19.4433 21.4967 19.8645C21.0799 20.286 20.5126 20.5245 19.9192 20.5245H4.2266C3.63319 20.5245 3.06591 20.286 2.64904 19.8645C2.23246 19.4433 2 18.8739 2 18.282V16.1187V6.74245C2 6.15055 2.23246 5.58113 2.64904 5.15993ZM3.6 16.4471V18.282C3.6 18.4553 3.66814 18.6196 3.78664 18.7394C3.90485 18.859 4.06329 18.9245 4.2266 18.9245H19.9192C20.0825 18.9245 20.2409 18.859 20.3591 18.7394C20.4776 18.6196 20.5458 18.4553 20.5458 18.282V16.4471L18.0103 13.8835C17.8855 13.7573 17.7378 13.6577 17.5758 13.5898C17.4139 13.522 17.2407 13.4872 17.066 13.4872C16.8912 13.4872 16.718 13.522 16.5561 13.5898C16.3942 13.6577 16.2465 13.7573 16.1216 13.8835L15.3379 14.6759L16.2082 15.5558C16.5189 15.8699 16.5161 16.3765 16.2019 16.6872C15.8878 16.9978 15.3813 16.9951 15.0706 16.6809L13.6447 15.2392L13.6429 15.2374L10.164 11.7199C10.0392 11.5936 9.89148 11.494 9.72955 11.4262C9.56764 11.3584 9.39441 11.3236 9.21969 11.3236C9.04496 11.3236 8.87174 11.3584 8.70982 11.4262C8.54789 11.494 8.40018 11.5936 8.27535 11.7198L3.6 16.4471ZM14.2128 13.5382L14.984 12.7584C15.2566 12.4828 15.5807 12.2637 15.938 12.114C16.2954 11.9644 16.6787 11.8872 17.066 11.8872C17.4533 11.8872 17.8366 11.9644 18.1939 12.114C18.5512 12.2637 18.8753 12.4828 19.1479 12.7584L20.5458 14.1718V6.74245C20.5458 6.56923 20.4776 6.40485 20.3591 6.28503C20.2409 6.16551 20.0825 6.1 19.9192 6.1H4.2266C4.06328 6.1 3.90485 6.16551 3.78664 6.28503C3.66814 6.40485 3.6 6.56923 3.6 6.74245V14.1718L7.13774 10.5948C7.41032 10.3191 7.73441 10.1 8.09173 9.95037C8.44907 9.80071 8.83238 9.72357 9.21969 9.72357C9.607 9.72357 9.9903 9.80071 10.3476 9.95037C10.705 10.1 11.029 10.3191 11.3016 10.5948L14.2128 13.5382ZM13.3918 8.08858C13.608 7.86996 13.9031 7.74551 14.2128 7.74551C14.5224 7.74551 14.8175 7.86996 15.0338 8.08858C15.2497 8.3069 15.3694 8.60114 15.3694 8.90612C15.3694 9.2111 15.2497 9.50534 15.0338 9.72366C14.8175 9.94228 14.5224 10.0667 14.2128 10.0667C13.9031 10.0667 13.608 9.94228 13.3918 9.72366C13.1759 9.50534 13.0561 9.2111 13.0561 8.90612C13.0561 8.60114 13.1759 8.3069 13.3918 8.08858Z" fill="#838B98"/>
</svg>